<?xml version="1.0" encoding="UTF-8" standalone="no"?><svg xmlns="http://www.w3.org/2000/svg" xmlns:xlink="http://www.w3.org/1999/xlink" contentScriptType="application/ecmascript" contentStyleType="text/css" height="1530px" preserveAspectRatio="none" style="width:574px;height:1530px;" version="1.1" viewBox="0 0 574 1530" width="574px" zoomAndPan="magnify"><defs><filter height="300%" id="f1h5xk2nb0o2jv" width="300%" x="-1" y="-1"><feGaussianBlur result="blurOut" stdDeviation="2.0"/><feColorMatrix in="blurOut" result="blurOut2" type="matrix" values="0 0 0 0 0 0 0 0 0 0 0 0 0 0 0 0 0 0 .4 0"/><feOffset dx="4.0" dy="4.0" in="blurOut2" result="blurOut3"/><feBlend in="SourceGraphic" in2="blurOut3" mode="normal"/></filter></defs><g><ellipse cx="411.25" cy="18" fill="#000000" filter="url(#f1h5xk2nb0o2jv)" rx="10" ry="10" style="stroke: none; stroke-width: 1.0;"/><rect fill="#FEFECE" filter="url(#f1h5xk2nb0o2jv)" height="35.0938" rx="12.5" ry="12.5" style="stroke: #A80036; stroke-width: 1.5;" width="109" x="357" y="84.5"/><text fill="#000000" font-family="sans-serif" font-size="12" lengthAdjust="spacingAndGlyphs" textLength="89" x="367" y="106.957">null,null,null,null</text><rect fill="#FEFECE" filter="url(#f1h5xk2nb0o2jv)" height="35.0938" rx="12.5" ry="12.5" style="stroke: #A80036; stroke-width: 1.5;" width="96" x="363.25" y="176.5"/><text fill="#000000" font-family="sans-serif" font-size="12" lengthAdjust="spacingAndGlyphs" textLength="76" x="373.25" y="198.957">0,null,null,null</text><rect fill="#FEFECE" filter="url(#f1h5xk2nb0o2jv)" height="35.0938" rx="12.5" ry="12.5" style="stroke: #A80036; stroke-width: 1.5;" width="83" x="370" y="268.5"/><text fill="#000000" font-family="sans-serif" font-size="12" lengthAdjust="spacingAndGlyphs" textLength="63" x="380" y="290.957">0,0,null,null</text><rect fill="#FEFECE" filter="url(#f1h5xk2nb0o2jv)" height="35.0938" rx="12.5" ry="12.5" style="stroke: #A80036; stroke-width: 1.5;" width="70" x="376.25" y="360.5"/><text fill="#000000" font-family="sans-serif" font-size="12" lengthAdjust="spacingAndGlyphs" textLength="50" x="386.25" y="382.957">0,0,null,0</text><rect fill="#FF0000" filter="url(#f1h5xk2nb0o2jv)" height="35.0938" rx="12.5" ry="12.5" style="stroke: #A80036; stroke-width: 1.5;" width="57" x="383" y="452.5"/><text fill="#000000" font-family="sans-serif" font-size="12" lengthAdjust="spacingAndGlyphs" textLength="37" x="393" y="474.957">0,0,0,0</text><rect fill="#FEFECE" filter="url(#f1h5xk2nb0o2jv)" height="35.0938" rx="12.5" ry="12.5" style="stroke: #A80036; stroke-width: 1.5;" width="57" x="302" y="600.5"/><text fill="#000000" font-family="sans-serif" font-size="12" lengthAdjust="spacingAndGlyphs" textLength="37" x="312" y="622.957">0,1,0,0</text><rect fill="#FEFECE" filter="url(#f1h5xk2nb0o2jv)" height="35.0938" rx="12.5" ry="12.5" style="stroke: #A80036; stroke-width: 1.5;" width="57" x="244" y="840.5"/><text fill="#000000" font-family="sans-serif" font-size="12" lengthAdjust="spacingAndGlyphs" textLength="37" x="254" y="862.957">0,1,0,1</text><rect fill="#FEFECE" filter="url(#f1h5xk2nb0o2jv)" height="35.0938" rx="12.5" ry="12.5" style="stroke: #A80036; stroke-width: 1.5;" width="57" x="158" y="932.5"/><text fill="#000000" font-family="sans-serif" font-size="12" lengthAdjust="spacingAndGlyphs" textLength="37" x="168" y="954.957">0,1,0,2</text><rect fill="#FEFECE" filter="url(#f1h5xk2nb0o2jv)" height="35.0938" rx="12.5" ry="12.5" style="stroke: #A80036; stroke-width: 1.5;" width="57" x="74" y="1024.5"/><text fill="#000000" font-family="sans-serif" font-size="12" lengthAdjust="spacingAndGlyphs" textLength="37" x="84" y="1046.957">0,1,0,3</text><rect fill="#FEFECE" filter="url(#f1h5xk2nb0o2jv)" height="35.0938" rx="12.5" ry="12.5" style="stroke: #A80036; stroke-width: 1.5;" width="57" x="6" y="1116.5"/><text fill="#000000" font-family="sans-serif" font-size="12" lengthAdjust="spacingAndGlyphs" textLength="37" x="16" y="1138.957">0,1,0,4</text><rect fill="#FEFECE" filter="url(#f1h5xk2nb0o2jv)" height="35.0938" rx="12.5" ry="12.5" style="stroke: #A80036; stroke-width: 1.5;" width="57" x="11" y="1208.5"/><text fill="#000000" font-family="sans-serif" font-size="12" lengthAdjust="spacingAndGlyphs" textLength="37" x="21" y="1230.957">0,0,0,4</text><rect fill="#FEFECE" filter="url(#f1h5xk2nb0o2jv)" height="35.0938" rx="12.5" ry="12.5" style="stroke: #A80036; stroke-width: 1.5;" width="57" x="83" y="1300.5"/><text fill="#000000" font-family="sans-serif" font-size="12" lengthAdjust="spacingAndGlyphs" textLength="37" x="93" y="1322.957">0,0,0,3</text><rect fill="#FEFECE" filter="url(#f1h5xk2nb0o2jv)" height="35.0938" rx="12.5" ry="12.5" style="stroke: #A80036; stroke-width: 1.5;" width="57" x="167" y="1392.5"/><text fill="#000000" font-family="sans-serif" font-size="12" lengthAdjust="spacingAndGlyphs" textLength="37" x="177" y="1414.957">0,0,0,2</text><rect fill="#FEFECE" filter="url(#f1h5xk2nb0o2jv)" height="35.0938" rx="12.5" ry="12.5" style="stroke: #A80036; stroke-width: 1.5;" width="57" x="281" y="1484.5"/><text fill="#000000" font-family="sans-serif" font-size="12" lengthAdjust="spacingAndGlyphs" textLength="37" x="291" y="1506.957">0,0,0,1</text><rect fill="#FEFECE" filter="url(#f1h5xk2nb0o2jv)" height="35.0938" rx="12.5" ry="12.5" style="stroke: #A80036; stroke-width: 1.5;" width="57" x="417" y="544.5"/><text fill="#000000" font-family="sans-serif" font-size="12" lengthAdjust="spacingAndGlyphs" textLength="37" x="427" y="566.957">1,0,0,0</text><rect fill="#FEFECE" filter="url(#f1h5xk2nb0o2jv)" height="35.0938" rx="12.5" ry="12.5" style="stroke: #A80036; stroke-width: 1.5;" width="57" x="383" y="656.5"/><text fill="#000000" font-family="sans-serif" font-size="12" lengthAdjust="spacingAndGlyphs" textLength="37" x="393" y="678.957">2,0,0,0</text><rect fill="#FEFECE" filter="url(#f1h5xk2nb0o2jv)" height="35.0938" rx="12.5" ry="12.5" style="stroke: #A80036; stroke-width: 1.5;" width="57" x="371" y="748.5"/><text fill="#000000" font-family="sans-serif" font-size="12" lengthAdjust="spacingAndGlyphs" textLength="37" x="381" y="770.957">3,0,0,0</text><rect fill="#FEFECE" filter="url(#f1h5xk2nb0o2jv)" height="35.0938" rx="12.5" ry="12.5" style="stroke: #A80036; stroke-width: 1.5;" width="57" x="359" y="840.5"/><text fill="#000000" font-family="sans-serif" font-size="12" lengthAdjust="spacingAndGlyphs" textLength="37" x="369" y="862.957">4,0,0,0</text><rect fill="#FEFECE" filter="url(#f1h5xk2nb0o2jv)" height="35.0938" rx="12.5" ry="12.5" style="stroke: #A80036; stroke-width: 1.5;" width="57" x="383" y="1116.5"/><text fill="#000000" font-family="sans-serif" font-size="12" lengthAdjust="spacingAndGlyphs" textLength="37" x="393" y="1138.957">4,0,0,1</text><rect fill="#FEFECE" filter="url(#f1h5xk2nb0o2jv)" height="35.0938" rx="12.5" ry="12.5" style="stroke: #A80036; stroke-width: 1.5;" width="57" x="383" y="1208.5"/><text fill="#000000" font-family="sans-serif" font-size="12" lengthAdjust="spacingAndGlyphs" textLength="37" x="393" y="1230.957">3,0,0,1</text><rect fill="#FEFECE" filter="url(#f1h5xk2nb0o2jv)" height="35.0938" rx="12.5" ry="12.5" style="stroke: #A80036; stroke-width: 1.5;" width="57" x="383" y="1300.5"/><text fill="#000000" font-family="sans-serif" font-size="12" lengthAdjust="spacingAndGlyphs" textLength="37" x="393" y="1322.957">2,0,0,1</text><rect fill="#FEFECE" filter="url(#f1h5xk2nb0o2jv)" height="35.0938" rx="12.5" ry="12.5" style="stroke: #A80036; stroke-width: 1.5;" width="57" x="413" y="1392.5"/><text fill="#000000" font-family="sans-serif" font-size="12" lengthAdjust="spacingAndGlyphs" textLength="37" x="423" y="1414.957">1,0,0,1</text><rect fill="#FEFECE" filter="url(#f1h5xk2nb0o2jv)" height="35.0938" rx="12.5" ry="12.5" style="stroke: #A80036; stroke-width: 1.5;" width="57" x="383" y="932.5"/><text fill="#000000" font-family="sans-serif" font-size="12" lengthAdjust="spacingAndGlyphs" textLength="37" x="393" y="954.957">5,0,0,0</text><rect fill="#FEFECE" filter="url(#f1h5xk2nb0o2jv)" height="35.0938" rx="12.5" ry="12.5" style="stroke: #A80036; stroke-width: 1.5;" width="57" x="383" y="1024.5"/><text fill="#000000" font-family="sans-serif" font-size="12" lengthAdjust="spacingAndGlyphs" textLength="37" x="393" y="1046.957">5,0,0,1</text><!--link start to null,null,null,null--><path d="M411.25,28.09 C411.25,40.23 411.25,62.13 411.25,78.77 " fill="none" id="start-null,null,null,null" style="stroke: #A80036; stroke-width: 1.0;"/><polygon fill="#A80036" points="411.25,84.19,415.25,75.19,411.25,79.19,407.25,75.19,411.25,84.19" style="stroke: #A80036; stroke-width: 1.0;"/><text fill="#000000" font-family="sans-serif" font-size="11" lengthAdjust="spacingAndGlyphs" textLength="6" x="412.25" y="60.4189">1</text><!--link null,null,null,null to 0,null,null,null--><path d="M411.25,119.51 C411.25,134.01 411.25,155.21 411.25,171.12 " fill="none" id="null,null,null,null-0,null,null,null" style="stroke: #A80036; stroke-width: 1.0;"/><polygon fill="#A80036" points="411.25,176.29,415.25,167.29,411.25,171.29,407.25,167.29,411.25,176.29" style="stroke: #A80036; stroke-width: 1.0;"/><text fill="#000000" font-family="sans-serif" font-size="11" lengthAdjust="spacingAndGlyphs" textLength="6" x="412.25" y="152.4189">1</text><!--link 0,null,null,null to 0,0,null,null--><path d="M411.25,211.51 C411.25,226.01 411.25,247.21 411.25,263.12 " fill="none" id="0,null,null,null-0,0,null,null" style="stroke: #A80036; stroke-width: 1.0;"/><polygon fill="#A80036" points="411.25,268.29,415.25,259.29,411.25,263.29,407.25,259.29,411.25,268.29" style="stroke: #A80036; stroke-width: 1.0;"/><text fill="#000000" font-family="sans-serif" font-size="11" lengthAdjust="spacingAndGlyphs" textLength="6" x="412.25" y="244.4189">1</text><!--link 0,0,null,null to 0,0,null,0--><path d="M411.25,303.51 C411.25,318.01 411.25,339.21 411.25,355.12 " fill="none" id="0,0,null,null-0,0,null,0" style="stroke: #A80036; stroke-width: 1.0;"/><polygon fill="#A80036" points="411.25,360.29,415.25,351.29,411.25,355.29,407.25,351.29,411.25,360.29" style="stroke: #A80036; stroke-width: 1.0;"/><text fill="#000000" font-family="sans-serif" font-size="11" lengthAdjust="spacingAndGlyphs" textLength="6" x="412.25" y="336.4189">1</text><!--link 0,0,null,0 to 0,0,0,0--><path d="M411.25,395.51 C411.25,410.01 411.25,431.21 411.25,447.12 " fill="none" id="0,0,null,0-0,0,0,0" style="stroke: #A80036; stroke-width: 1.0;"/><polygon fill="#A80036" points="411.25,452.29,415.25,443.29,411.25,447.29,407.25,443.29,411.25,452.29" style="stroke: #A80036; stroke-width: 1.0;"/><text fill="#000000" font-family="sans-serif" font-size="11" lengthAdjust="spacingAndGlyphs" textLength="6" x="412.25" y="428.4189">1</text><!--link 0,0,0,0 to 0,1,0,0--><path d="M382.748,478.28 C367.247,483.79 349.247,493.04 339.25,508 C321.886,533.976 323.126,571.595 326.228,595.155 " fill="none" id="0,0,0,0-0,1,0,0" style="stroke: #A80036; stroke-width: 1.0;"/><polygon fill="#A80036" points="326.956,600.249,329.6403,590.773,326.2475,595.2995,321.7211,591.9066,326.956,600.249" style="stroke: #A80036; stroke-width: 1.0;"/><text fill="#000000" font-family="sans-serif" font-size="11" lengthAdjust="spacingAndGlyphs" textLength="6" x="340.25" y="520.4189">6</text><!--link 0,1,0,0 to 0,0,0,0--><path d="M339.433,600.447 C354.195,573.839 383.191,521.576 399.46,492.25 " fill="none" id="0,1,0,0-0,0,0,0" style="stroke: #A80036; stroke-width: 1.0;"/><polygon fill="#A80036" points="401.958,487.75,394.0914,493.6759,399.5304,492.1211,401.0852,497.5601,401.958,487.75" style="stroke: #A80036; stroke-width: 1.0;"/><text fill="#000000" font-family="sans-serif" font-size="11" lengthAdjust="spacingAndGlyphs" textLength="6" x="390.25" y="520.4189">3</text><!--link 0,1,0,0 to 0,1,0,1--><path d="M321.493,635.719 C318.375,641.991 314.965,649.239 312.25,656 C302.507,680.26 300.23,686.55 294.25,712 C284.107,755.168 277.582,806.711 274.448,835.253 " fill="none" id="0,1,0,0-0,1,0,1" style="stroke: #A80036; stroke-width: 1.0;"/><polygon fill="#A80036" points="273.902,840.308,278.8456,831.7898,274.4391,835.3369,270.8919,830.9304,273.902,840.308" style="stroke: #A80036; stroke-width: 1.0;"/><text fill="#000000" font-family="sans-serif" font-size="11" lengthAdjust="spacingAndGlyphs" textLength="6" x="295.25" y="724.4189">7</text><!--link 0,1,0,1 to 0,1,0,0--><path d="M283.287,840.244 C286.924,834.089 290.689,826.928 293.25,820 C316.354,757.511 325.471,678.558 328.69,640.909 " fill="none" id="0,1,0,1-0,1,0,0" style="stroke: #A80036; stroke-width: 1.0;"/><polygon fill="#A80036" points="329.123,635.661,324.396,644.3013,328.7116,640.644,332.3688,644.9596,329.123,635.661" style="stroke: #A80036; stroke-width: 1.0;"/><text fill="#000000" font-family="sans-serif" font-size="11" lengthAdjust="spacingAndGlyphs" textLength="6" x="321.25" y="724.4189">4</text><!--link 0,1,0,1 to 0,1,0,2--><path d="M243.903,868.015 C229.577,873.897 212.998,882.948 202.25,896 C195.004,904.799 191.038,916.82 188.868,927.189 " fill="none" id="0,1,0,1-0,1,0,2" style="stroke: #A80036; stroke-width: 1.0;"/><polygon fill="#A80036" points="187.94,932.126,193.5346,924.0204,188.8642,927.2122,185.6725,922.5417,187.94,932.126" style="stroke: #A80036; stroke-width: 1.0;"/><text fill="#000000" font-family="sans-serif" font-size="11" lengthAdjust="spacingAndGlyphs" textLength="6" x="203.25" y="908.4189">3</text><!--link 0,1,0,2 to 0,1,0,1--><path d="M202.215,932.292 C216.491,917.353 237.455,895.414 252.724,879.434 " fill="none" id="0,1,0,2-0,1,0,1" style="stroke: #A80036; stroke-width: 1.0;"/><polygon fill="#A80036" points="256.476,875.507,247.366,879.2496,253.0214,879.1216,253.1494,884.777,256.476,875.507" style="stroke: #A80036; stroke-width: 1.0;"/><text fill="#000000" font-family="sans-serif" font-size="11" lengthAdjust="spacingAndGlyphs" textLength="6" x="236.25" y="908.4189">1</text><!--link 0,1,0,2 to 0,1,0,3--><path d="M157.683,960.639 C144.004,966.576 128.427,975.488 118.25,988 C111.058,996.843 107.095,1008.867 104.9139,1019.227 " fill="none" id="0,1,0,2-0,1,0,3" style="stroke: #A80036; stroke-width: 1.0;"/><polygon fill="#A80036" points="103.9798,1024.158,109.584,1016.0591,104.9098,1019.2453,101.7236,1014.571,103.9798,1024.158" style="stroke: #A80036; stroke-width: 1.0;"/><text fill="#000000" font-family="sans-serif" font-size="11" lengthAdjust="spacingAndGlyphs" textLength="6" x="119.25" y="1000.4189">9</text><!--link 0,1,0,3 to 0,1,0,2--><path d="M117.844,1024.292 C131.787,1009.353 152.264,987.414 167.178,971.434 " fill="none" id="0,1,0,3-0,1,0,2" style="stroke: #A80036; stroke-width: 1.0;"/><polygon fill="#A80036" points="170.843,967.507,161.7782,971.358,167.4317,971.1626,167.6271,976.816,170.843,967.507" style="stroke: #A80036; stroke-width: 1.0;"/><text fill="#000000" font-family="sans-serif" font-size="11" lengthAdjust="spacingAndGlyphs" textLength="6" x="151.25" y="1000.4189">7</text><!--link 0,1,0,3 to 0,1,0,4--><path d="M73.9998,1049.281 C57.5807,1054.539 38.2179,1063.872 28.25,1080 C22.5601,1089.206 23.3162,1101.053 25.8184,1111.211 " fill="none" id="0,1,0,3-0,1,0,4" style="stroke: #A80036; stroke-width: 1.0;"/><polygon fill="#A80036" points="27.1665,1116.043,28.6023,1106.2994,25.8236,1111.2267,20.8963,1108.448,27.1665,1116.043" style="stroke: #A80036; stroke-width: 1.0;"/><text fill="#000000" font-family="sans-serif" font-size="11" lengthAdjust="spacingAndGlyphs" textLength="12" x="29.25" y="1092.4189">26</text><!--link 0,1,0,4 to 0,1,0,3--><path d="M43.9616,1116.266 C50.4096,1105.579 59.3059,1091.601 68.25,1080 C72.4946,1074.494 77.391,1068.831 82.1223,1063.642 " fill="none" id="0,1,0,4-0,1,0,3" style="stroke: #A80036; stroke-width: 1.0;"/><polygon fill="#A80036" points="85.6946,1059.777,76.6481,1063.6708,82.3006,1063.4487,82.5228,1069.1011,85.6946,1059.777" style="stroke: #A80036; stroke-width: 1.0;"/><text fill="#000000" font-family="sans-serif" font-size="11" lengthAdjust="spacingAndGlyphs" textLength="12" x="69.25" y="1092.4189">12</text><!--link 0,1,0,4 to 0,0,0,4--><path d="M20.5899,1151.93 C13.9709,1162.212 8.235,1175.687 12.25,1188 C14.0989,1193.67 17.1819,1199.194 20.6172,1204.17 " fill="none" id="0,1,0,4-0,0,0,4" style="stroke: #A80036; stroke-width: 1.0;"/><polygon fill="#A80036" points="23.5663,1208.212,21.4953,1198.5833,20.6202,1204.1721,15.0315,1203.297,23.5663,1208.212" style="stroke: #A80036; stroke-width: 1.0;"/><text fill="#000000" font-family="sans-serif" font-size="11" lengthAdjust="spacingAndGlyphs" textLength="12" x="13.25" y="1184.4189">15</text><!--link 0,0,0,4 to 0,1,0,4--><path d="M38.3218,1208.292 C37.5129,1193.733 36.3347,1172.525 35.4536,1156.664 " fill="none" id="0,0,0,4-0,1,0,4" style="stroke: #A80036; stroke-width: 1.0;"/><polygon fill="#A80036" points="35.1671,1151.507,31.6721,1160.7149,35.4442,1156.4993,39.6598,1160.2714,35.1671,1151.507" style="stroke: #A80036; stroke-width: 1.0;"/><text fill="#000000" font-family="sans-serif" font-size="11" lengthAdjust="spacingAndGlyphs" textLength="6" x="38.25" y="1184.4189">1</text><!--link 0,0,0,4 to 0,0,0,3--><path d="M46.4765,1243.71 C51.6517,1254.647 59.2753,1268.912 68.25,1280 C73.0831,1285.971 78.9628,1291.738 84.8028,1296.872 " fill="none" id="0,0,0,4-0,0,0,3" style="stroke: #A80036; stroke-width: 1.0;"/><polygon fill="#A80036" points="88.8262,1300.319,84.5942,1291.4258,85.0292,1297.0659,79.3891,1297.5009,88.8262,1300.319" style="stroke: #A80036; stroke-width: 1.0;"/><text fill="#000000" font-family="sans-serif" font-size="11" lengthAdjust="spacingAndGlyphs" textLength="12" x="69.25" y="1276.4189">14</text><!--link 0,0,0,3 to 0,1,0,3--><path d="M113.612,1300.463 C118.708,1261.635 129.192,1161.74 115.25,1080 C114.374,1074.866 112.861,1069.496 111.17,1064.49 " fill="none" id="0,0,0,3-0,1,0,3" style="stroke: #A80036; stroke-width: 1.0;"/><polygon fill="#A80036" points="109.436,1059.627,108.6904,1069.4476,111.115,1064.3367,116.2259,1066.7612,109.436,1059.627" style="stroke: #A80036; stroke-width: 1.0;"/><text fill="#000000" font-family="sans-serif" font-size="11" lengthAdjust="spacingAndGlyphs" textLength="12" x="123.25" y="1184.4189">14</text><!--link 0,1,0,3 to 0,0,0,3--><path d="M102.7994,1059.727 C104.3565,1107.132 108.798,1242.349 110.538,1295.331 " fill="none" id="0,1,0,3-0,0,0,3" style="stroke: #A80036; stroke-width: 1.0;"/><polygon fill="#A80036" points="110.708,1300.491,114.4102,1291.3645,110.5438,1295.4937,106.4145,1291.6273,110.708,1300.491" style="stroke: #A80036; stroke-width: 1.0;"/><text fill="#000000" font-family="sans-serif" font-size="11" lengthAdjust="spacingAndGlyphs" textLength="6" x="108.25" y="1184.4189">2</text><!--link 0,0,0,3 to 0,0,0,2--><path d="M125.815,1335.94 C134.972,1346.461 147.12,1360.182 158.25,1372 C163.412,1377.481 169.109,1383.29 174.454,1388.642 " fill="none" id="0,0,0,3-0,0,0,2" style="stroke: #A80036; stroke-width: 1.0;"/><polygon fill="#A80036" points="178.088,1392.264,174.5376,1383.0773,174.5468,1388.7342,168.8899,1388.7433,178.088,1392.264" style="stroke: #A80036; stroke-width: 1.0;"/><text fill="#000000" font-family="sans-serif" font-size="11" lengthAdjust="spacingAndGlyphs" textLength="6" x="159.25" y="1368.4189">2</text><!--link 0,0,0,2 to 0,1,0,2--><path d="M204.414,1392.3 C213.236,1374.635 225.25,1345.682 225.25,1319 C225.25,1041 225.25,1041 225.25,1041 C225.25,1015.725 212.141,989.505 201.123,971.932 " fill="none" id="0,0,0,2-0,1,0,2" style="stroke: #A80036; stroke-width: 1.0;"/><polygon fill="#A80036" points="198.376,967.657,199.8753,977.3911,201.0786,971.8637,206.606,973.067,198.376,967.657" style="stroke: #A80036; stroke-width: 1.0;"/><text fill="#000000" font-family="sans-serif" font-size="11" lengthAdjust="spacingAndGlyphs" textLength="6" x="226.25" y="1184.4189">2</text><!--link 0,1,0,2 to 0,0,0,2--><path d="M185.366,967.582 C184.481,985.636 183.25,1015.361 183.25,1041 C183.25,1041 183.25,1041 183.25,1319 C183.25,1342.285 187.246,1368.664 190.626,1386.814 " fill="none" id="0,1,0,2-0,0,0,2" style="stroke: #A80036; stroke-width: 1.0;"/><polygon fill="#A80036" points="191.65,1392.17,193.8864,1382.5784,190.7098,1387.2592,186.0291,1384.0827,191.65,1392.17" style="stroke: #A80036; stroke-width: 1.0;"/><text fill="#000000" font-family="sans-serif" font-size="11" lengthAdjust="spacingAndGlyphs" textLength="6" x="184.25" y="1184.4189">2</text><!--link 0,0,0,2 to 0,0,0,1--><path d="M207.556,1427.6415 C216.377,1438.8226 229,1453.3953 242.25,1464 C252.599,1472.2828 265.057,1479.7288 276.408,1485.7324 " fill="none" id="0,0,0,2-0,0,0,1" style="stroke: #A80036; stroke-width: 1.0;"/><polygon fill="#A80036" points="280.862,1488.0455,274.7181,1480.3479,276.4246,1485.7412,271.0313,1487.4477,280.862,1488.0455" style="stroke: #A80036; stroke-width: 1.0;"/><text fill="#000000" font-family="sans-serif" font-size="11" lengthAdjust="spacingAndGlyphs" textLength="6" x="243.25" y="1460.4189">2</text><!--link 0,0,0,1 to 0,1,0,1--><path d="M309.25,1484.4122 C309.25,1466.354 309.25,1436.625 309.25,1411 C309.25,949 309.25,949 309.25,949 C309.25,923.926 296.813,897.674 286.36,880.038 " fill="none" id="0,0,0,1-0,1,0,1" style="stroke: #A80036; stroke-width: 1.0;"/><polygon fill="#A80036" points="283.754,875.746,285.0067,885.5149,286.3493,880.0197,291.8445,881.3623,283.754,875.746" style="stroke: #A80036; stroke-width: 1.0;"/><text fill="#000000" font-family="sans-serif" font-size="11" lengthAdjust="spacingAndGlyphs" textLength="6" x="310.25" y="1184.4189">2</text><!--link 0,1,0,1 to 0,0,0,1--><path d="M270.777,875.572 C269.302,893.618 267.25,923.335 267.25,949 C267.25,949 267.25,949 267.25,1411 C267.25,1436.5919 281.368,1462.7611 293.233,1480.2358 " fill="none" id="0,1,0,1-0,0,0,1" style="stroke: #A80036; stroke-width: 1.0;"/><polygon fill="#A80036" points="296.191,1484.4856,294.333,1474.8136,293.3348,1480.3817,287.7667,1479.3835,296.191,1484.4856" style="stroke: #A80036; stroke-width: 1.0;"/><text fill="#000000" font-family="sans-serif" font-size="11" lengthAdjust="spacingAndGlyphs" textLength="6" x="268.25" y="1184.4189">3</text><!--link 0,0,0,1 to 0,0,0,0--><path d="M337.951,1496.7295 C402.843,1486.2671 555.25,1456.8179 555.25,1411 C555.25,561 555.25,561 555.25,561 C555.25,509.16 487.302,486.07 444.756,476.7 " fill="none" id="0,0,0,1-0,0,0,0" style="stroke: #A80036; stroke-width: 1.0;"/><polygon fill="#A80036" points="439.7,475.62,447.6684,481.4084,444.5901,476.6624,449.3361,473.5842,439.7,475.62" style="stroke: #A80036; stroke-width: 1.0;"/><text fill="#000000" font-family="sans-serif" font-size="11" lengthAdjust="spacingAndGlyphs" textLength="6" x="556.25" y="1000.4189">5</text><!--link 0,0,0,0 to 1,0,0,0--><path d="M408.648,487.82 C407.686,498.54 407.749,512.52 412.25,524 C414.557,529.885 418.256,535.438 422.358,540.366 " fill="none" id="0,0,0,0-1,0,0,0" style="stroke: #A80036; stroke-width: 1.0;"/><polygon fill="#A80036" points="425.878,544.352,422.9175,534.9586,422.5678,540.6046,416.9218,540.2549,425.878,544.352" style="stroke: #A80036; stroke-width: 1.0;"/><text fill="#000000" font-family="sans-serif" font-size="11" lengthAdjust="spacingAndGlyphs" textLength="6" x="413.25" y="520.4189">4</text><!--link 1,0,0,0 to 0,0,0,0--><path d="M438.938,544.292 C433.39,529.606 425.286,508.16 419.278,492.25 " fill="none" id="1,0,0,0-0,0,0,0" style="stroke: #A80036; stroke-width: 1.0;"/><polygon fill="#A80036" points="417.486,487.51,416.9067,497.3418,419.2444,492.1906,424.3957,494.5283,417.486,487.51" style="stroke: #A80036; stroke-width: 1.0;"/><text fill="#000000" font-family="sans-serif" font-size="11" lengthAdjust="spacingAndGlyphs" textLength="6" x="432.25" y="520.4189">2</text><!--link 1,0,0,0 to 2,0,0,0--><path d="M425.854,579.639 C420.412,585.468 415.183,592.46 412.25,600 C405.906,616.307 406.113,636.254 407.651,651.174 " fill="none" id="1,0,0,0-2,0,0,0" style="stroke: #A80036; stroke-width: 1.0;"/><polygon fill="#A80036" points="408.268,656.427,411.1889,647.0212,407.6837,651.4613,403.2437,647.9561,408.268,656.427" style="stroke: #A80036; stroke-width: 1.0;"/><text fill="#000000" font-family="sans-serif" font-size="11" lengthAdjust="spacingAndGlyphs" textLength="6" x="413.25" y="622.4189">4</text><!--link 2,0,0,0 to 1,0,0,0--><path d="M416.351,656.497 C422.274,637.333 432.064,605.661 438.585,584.565 " fill="none" id="2,0,0,0-1,0,0,0" style="stroke: #A80036; stroke-width: 1.0;"/><polygon fill="#A80036" points="440.086,579.707,433.6072,587.1249,438.6098,584.4841,441.2506,589.4868,440.086,579.707" style="stroke: #A80036; stroke-width: 1.0;"/><text fill="#000000" font-family="sans-serif" font-size="11" lengthAdjust="spacingAndGlyphs" textLength="6" x="435.25" y="622.4189">2</text><!--link 2,0,0,0 to 3,0,0,0--><path d="M394.994,691.702 C390.264,697.633 385.711,704.669 383.25,712 C379.78,722.336 382.527,733.919 386.662,743.614 " fill="none" id="2,0,0,0-3,0,0,0" style="stroke: #A80036; stroke-width: 1.0;"/><polygon fill="#A80036" points="388.783,748.207,388.6427,738.3591,386.6874,743.6673,381.3793,741.712,388.783,748.207" style="stroke: #A80036; stroke-width: 1.0;"/><text fill="#000000" font-family="sans-serif" font-size="11" lengthAdjust="spacingAndGlyphs" textLength="6" x="384.25" y="724.4189">8</text><!--link 3,0,0,0 to 2,0,0,0--><path d="M401.478,748.292 C403.419,733.733 406.247,712.525 408.361,696.664 " fill="none" id="3,0,0,0-2,0,0,0" style="stroke: #A80036; stroke-width: 1.0;"/><polygon fill="#A80036" points="409.049,691.507,403.8938,699.8989,408.3877,696.4631,411.8235,700.957,409.049,691.507" style="stroke: #A80036; stroke-width: 1.0;"/><text fill="#000000" font-family="sans-serif" font-size="11" lengthAdjust="spacingAndGlyphs" textLength="6" x="407.25" y="724.4189">6</text><!--link 3,0,0,0 to 4,0,0,0--><path d="M386.672,783.815 C382.87,789.861 379.191,796.938 377.25,804 C374.461,814.149 376.049,825.604 378.708,835.261 " fill="none" id="3,0,0,0-4,0,0,0" style="stroke: #A80036; stroke-width: 1.0;"/><polygon fill="#A80036" points="380.179,840.13,381.4055,830.3578,378.7331,835.3436,373.7473,832.6713,380.179,840.13" style="stroke: #A80036; stroke-width: 1.0;"/><text fill="#000000" font-family="sans-serif" font-size="11" lengthAdjust="spacingAndGlyphs" textLength="6" x="378.25" y="816.4189">7</text><!--link 4,0,0,0 to 3,0,0,0--><path d="M389.478,840.292 C391.419,825.733 394.247,804.525 396.361,788.664 " fill="none" id="4,0,0,0-3,0,0,0" style="stroke: #A80036; stroke-width: 1.0;"/><polygon fill="#A80036" points="397.049,783.507,391.8938,791.8989,396.3877,788.4631,399.8235,792.957,397.049,783.507" style="stroke: #A80036; stroke-width: 1.0;"/><text fill="#000000" font-family="sans-serif" font-size="11" lengthAdjust="spacingAndGlyphs" textLength="6" x="395.25" y="816.4189">5</text><!--link 4,0,0,0 to 4,0,0,1--><path d="M382.489,875.717 C373.324,910.57 355.549,993.298 372.25,1060 C376.922,1078.659 387.372,1097.765 396.28,1111.749 " fill="none" id="4,0,0,0-4,0,0,1" style="stroke: #A80036; stroke-width: 1.0;"/><polygon fill="#A80036" points="399.231,1116.286,397.6778,1106.5604,396.5052,1112.0944,390.9712,1110.9217,399.231,1116.286" style="stroke: #A80036; stroke-width: 1.0;"/><text fill="#000000" font-family="sans-serif" font-size="11" lengthAdjust="spacingAndGlyphs" textLength="6" x="367.25" y="1000.4189">1</text><!--link 4,0,0,1 to 3,0,0,1--><path d="M411.25,1151.507 C411.25,1166.006 411.25,1187.208 411.25,1203.117 " fill="none" id="4,0,0,1-3,0,0,1" style="stroke: #A80036; stroke-width: 1.0;"/><polygon fill="#A80036" points="411.25,1208.292,415.25,1199.292,411.25,1203.292,407.25,1199.292,411.25,1208.292" style="stroke: #A80036; stroke-width: 1.0;"/><text fill="#000000" font-family="sans-serif" font-size="11" lengthAdjust="spacingAndGlyphs" textLength="6" x="412.25" y="1184.4189">2</text><!--link 3,0,0,1 to 2,0,0,1--><path d="M411.25,1243.507 C411.25,1258.006 411.25,1279.208 411.25,1295.117 " fill="none" id="3,0,0,1-2,0,0,1" style="stroke: #A80036; stroke-width: 1.0;"/><polygon fill="#A80036" points="411.25,1300.292,415.25,1291.292,411.25,1295.292,407.25,1291.292,411.25,1300.292" style="stroke: #A80036; stroke-width: 1.0;"/><text fill="#000000" font-family="sans-serif" font-size="11" lengthAdjust="spacingAndGlyphs" textLength="6" x="412.25" y="1276.4189">2</text><!--link 2,0,0,1 to 1,0,0,1--><path d="M416.752,1335.507 C421.627,1350.132 428.776,1371.577 434.094,1387.531 " fill="none" id="2,0,0,1-1,0,0,1" style="stroke: #A80036; stroke-width: 1.0;"/><polygon fill="#A80036" points="435.681,1392.292,436.6323,1382.4892,434.1011,1387.5482,429.0422,1385.017,435.681,1392.292" style="stroke: #A80036; stroke-width: 1.0;"/><text fill="#000000" font-family="sans-serif" font-size="11" lengthAdjust="spacingAndGlyphs" textLength="6" x="429.25" y="1368.4189">2</text><!--link 1,0,0,1 to 1,0,0,0--><path d="M466.432,1392.198 C487.195,1376.125 513.25,1349.815 513.25,1319 C513.25,673 513.25,673 513.25,673 C513.25,638.559 506.565,628.515 487.25,600 C483.088,593.855 477.671,588.084 472.118,583.01 " fill="none" id="1,0,0,1-1,0,0,0" style="stroke: #A80036; stroke-width: 1.0;"/><polygon fill="#A80036" points="468.266,579.612,472.3684,588.5658,472.0153,582.92,477.6611,582.5669,468.266,579.612" style="stroke: #A80036; stroke-width: 1.0;"/><text fill="#000000" font-family="sans-serif" font-size="11" lengthAdjust="spacingAndGlyphs" textLength="6" x="514.25" y="1000.4189">2</text><!--link 1,0,0,0 to 1,0,0,1--><path d="M451.811,579.856 C459.513,601.194 471.25,639.248 471.25,673 C471.25,673 471.25,673 471.25,1319 C471.25,1343.389 461.213,1369.675 452.75,1387.504 " fill="none" id="1,0,0,0-1,0,0,1" style="stroke: #A80036; stroke-width: 1.0;"/><polygon fill="#A80036" points="450.414,1392.3,457.9498,1385.9587,452.6025,1387.8044,450.7568,1382.4571,450.414,1392.3" style="stroke: #A80036; stroke-width: 1.0;"/><text fill="#000000" font-family="sans-serif" font-size="11" lengthAdjust="spacingAndGlyphs" textLength="6" x="472.25" y="1000.4189">2</text><!--link 1,0,0,1 to 0,0,0,1--><path d="M417.039,1427.5074 C394.758,1442.6992 361.682,1465.251 338.052,1481.3623 " fill="none" id="1,0,0,1-0,0,0,1" style="stroke: #A80036; stroke-width: 1.0;"/><polygon fill="#A80036" points="333.754,1484.2925,343.4437,1482.5291,337.8856,1481.4765,338.9382,1475.9185,333.754,1484.2925" style="stroke: #A80036; stroke-width: 1.0;"/><text fill="#000000" font-family="sans-serif" font-size="11" lengthAdjust="spacingAndGlyphs" textLength="6" x="384.25" y="1460.4189">2</text><!--link 4,0,0,0 to 5,0,0,0--><path d="M385.332,875.581 C384.643,886.207 384.753,900.174 388.25,912 C389.859,917.442 392.501,922.872 395.432,927.831 " fill="none" id="4,0,0,0-5,0,0,0" style="stroke: #A80036; stroke-width: 1.0;"/><polygon fill="#A80036" points="398.183,932.238,396.8112,922.4851,395.5357,927.9963,390.0245,926.7208,398.183,932.238" style="stroke: #A80036; stroke-width: 1.0;"/><text fill="#000000" font-family="sans-serif" font-size="11" lengthAdjust="spacingAndGlyphs" textLength="6" x="389.25" y="908.4189">2</text><!--link 5,0,0,0 to 4,0,0,0--><path d="M406.861,932.284 C404.114,921.848 400.493,908.137 397.25,896 C395.91,890.986 394.458,885.592 393.087,880.516 " fill="none" id="5,0,0,0-4,0,0,0" style="stroke: #A80036; stroke-width: 1.0;"/><polygon fill="#A80036" points="391.75,875.571,390.2388,885.3032,393.0556,880.3975,397.9612,883.2143,391.75,875.571" style="stroke: #A80036; stroke-width: 1.0;"/><text fill="#000000" font-family="sans-serif" font-size="11" lengthAdjust="spacingAndGlyphs" textLength="6" x="402.25" y="908.4189">1</text><!--link 5,0,0,0 to 5,0,0,1--><path d="M411.25,967.507 C411.25,982.006 411.25,1003.208 411.25,1019.117 " fill="none" id="5,0,0,0-5,0,0,1" style="stroke: #A80036; stroke-width: 1.0;"/><polygon fill="#A80036" points="411.25,1024.292,415.25,1015.292,411.25,1019.292,407.25,1015.292,411.25,1024.292" style="stroke: #A80036; stroke-width: 1.0;"/><text fill="#000000" font-family="sans-serif" font-size="11" lengthAdjust="spacingAndGlyphs" textLength="6" x="412.25" y="1000.4189">1</text><!--link 5,0,0,1 to 4,0,0,1--><path d="M411.25,1059.507 C411.25,1074.006 411.25,1095.208 411.25,1111.117 " fill="none" id="5,0,0,1-4,0,0,1" style="stroke: #A80036; stroke-width: 1.0;"/><polygon fill="#A80036" points="411.25,1116.292,415.25,1107.292,411.25,1111.292,407.25,1107.292,411.25,1116.292" style="stroke: #A80036; stroke-width: 1.0;"/><text fill="#000000" font-family="sans-serif" font-size="11" lengthAdjust="spacingAndGlyphs" textLength="6" x="412.25" y="1092.4189">1</text><!--
@startuml
(*) - -> [1] "null,null,null,null"
"null,null,null,null" - -> [1] "0,null,null,null"
"0,null,null,null" - -> [1] "0,0,null,null"
"0,0,null,null" - -> [1] "0,0,null,0"
"0,0,null,0" - -> [1] "0,0,0,0"
"0,0,0,0" - -> [6] "0,1,0,0"
"0,1,0,0" - -> [7] "0,1,0,1"
"0,1,0,1" - -> [3] "0,1,0,2"
"0,1,0,2" - -> [9] "0,1,0,3"
"0,1,0,3" - -> [26] "0,1,0,4"
"0,1,0,4" - -> [12] "0,1,0,3"
"0,1,0,4" - -> [15] "0,0,0,4"
"0,0,0,4" - -> [14] "0,0,0,3"
"0,0,0,3" - -> [14] "0,1,0,3"
"0,1,0,3" - -> [7] "0,1,0,2"
"0,0,0,4" - -> [1] "0,1,0,4"
"0,1,0,3" - -> [2] "0,0,0,3"
"0,0,0,3" - -> [2] "0,0,0,2"
"0,0,0,2" - -> [2] "0,1,0,2"
"0,1,0,2" - -> [1] "0,1,0,1"
"0,1,0,2" - -> [2] "0,0,0,2"
"0,0,0,2" - -> [2] "0,0,0,1"
"0,0,0,1" - -> [2] "0,1,0,1"
"0,1,0,1" - -> [4] "0,1,0,0"
"0,1,0,1" - -> [3] "0,0,0,1"
"0,0,0,1" - -> [5] "0,0,0,0"
"0,1,0,0" - -> [3] "0,0,0,0"
"0,0,0,0" - -> [4] "1,0,0,0"
"1,0,0,0" - -> [4] "2,0,0,0"
"2,0,0,0" - -> [8] "3,0,0,0"
"3,0,0,0" - -> [7] "4,0,0,0"
"4,0,0,0" - -> [1] "4,0,0,1"
"4,0,0,1" - -> [2] "3,0,0,1"
"3,0,0,1" - -> [2] "2,0,0,1"
"2,0,0,1" - -> [2] "1,0,0,1"
"1,0,0,1" - -> [2] "1,0,0,0"
"1,0,0,0" - -> [2] "1,0,0,1"
"1,0,0,1" - -> [2] "0,0,0,1"
"4,0,0,0" - -> [2] "5,0,0,0"
"5,0,0,0" - -> [1] "5,0,0,1"
"5,0,0,1" - -> [1] "4,0,0,1"
"5,0,0,0" - -> [1] "4,0,0,0"
"4,0,0,0" - -> [5] "3,0,0,0"
"3,0,0,0" - -> [6] "2,0,0,0"
"2,0,0,0" - -> [2] "1,0,0,0"
"1,0,0,0" - -> [2] "0,0,0,0" #red
@enduml

PlantUML version 1.2018.09(Fri Jul 27 12:58:18 EDT 2018)
(EPL source distribution)
Java Runtime: Java(TM) SE Runtime Environment
JVM: Java HotSpot(TM) 64-Bit Server VM
Java Version: 1.8.0_181-b13
Operating System: Windows 10
OS Version: 10.0
Default Encoding: Cp1252
Language: en
Country: US
--></g></svg>