<?xml version="1.0" encoding="UTF-8" standalone="no"?><svg xmlns="http://www.w3.org/2000/svg" xmlns:xlink="http://www.w3.org/1999/xlink" contentScriptType="application/ecmascript" contentStyleType="text/css" height="774px" preserveAspectRatio="none" style="width:140px;height:774px;" version="1.1" viewBox="0 0 140 774" width="140px" zoomAndPan="magnify"><defs><filter height="300%" id="f1n2b2l11af565" width="300%" x="-1" y="-1"><feGaussianBlur result="blurOut" stdDeviation="2.0"/><feColorMatrix in="blurOut" result="blurOut2" type="matrix" values="0 0 0 0 0 0 0 0 0 0 0 0 0 0 0 0 0 0 .4 0"/><feOffset dx="4.0" dy="4.0" in="blurOut2" result="blurOut3"/><feBlend in="SourceGraphic" in2="blurOut3" mode="normal"/></filter></defs><g><ellipse cx="73.25" cy="18" fill="#000000" filter="url(#f1n2b2l11af565)" rx="10" ry="10" style="stroke: none; stroke-width: 1.0;"/><rect fill="#FEFECE" filter="url(#f1n2b2l11af565)" height="35.0938" rx="12.5" ry="12.5" style="stroke: #A80036; stroke-width: 1.5;" width="63" x="42" y="84.5"/><text fill="#000000" font-family="sans-serif" font-size="12" lengthAdjust="spacingAndGlyphs" textLength="43" x="52" y="106.957">null,null</text><rect fill="#FEFECE" filter="url(#f1n2b2l11af565)" height="35.0938" rx="12.5" ry="12.5" style="stroke: #A80036; stroke-width: 1.5;" width="50" x="48.25" y="176.5"/><text fill="#000000" font-family="sans-serif" font-size="12" lengthAdjust="spacingAndGlyphs" textLength="30" x="58.25" y="198.957">0,null</text><rect fill="#FF0000" filter="url(#f1n2b2l11af565)" height="35.0938" rx="12.5" ry="12.5" style="stroke: #A80036; stroke-width: 1.5;" width="37" x="55" y="268.5"/><text fill="#000000" font-family="sans-serif" font-size="12" lengthAdjust="spacingAndGlyphs" textLength="17" x="65" y="290.957">0,0</text><rect fill="#FEFECE" filter="url(#f1n2b2l11af565)" height="35.0938" rx="12.5" ry="12.5" style="stroke: #A80036; stroke-width: 1.5;" width="37" x="6" y="360.5"/><text fill="#000000" font-family="sans-serif" font-size="12" lengthAdjust="spacingAndGlyphs" textLength="17" x="16" y="382.957">0,1</text><rect fill="#FEFECE" filter="url(#f1n2b2l11af565)" height="35.0938" rx="12.5" ry="12.5" style="stroke: #A80036; stroke-width: 1.5;" width="37" x="92" y="360.5"/><text fill="#000000" font-family="sans-serif" font-size="12" lengthAdjust="spacingAndGlyphs" textLength="17" x="102" y="382.957">1,0</text><rect fill="#FEFECE" filter="url(#f1n2b2l11af565)" height="35.0938" rx="12.5" ry="12.5" style="stroke: #A80036; stroke-width: 1.5;" width="37" x="92" y="452.5"/><text fill="#000000" font-family="sans-serif" font-size="12" lengthAdjust="spacingAndGlyphs" textLength="17" x="102" y="474.957">2,0</text><rect fill="#FEFECE" filter="url(#f1n2b2l11af565)" height="35.0938" rx="12.5" ry="12.5" style="stroke: #A80036; stroke-width: 1.5;" width="37" x="92" y="544.5"/><text fill="#000000" font-family="sans-serif" font-size="12" lengthAdjust="spacingAndGlyphs" textLength="17" x="102" y="566.957">3,0</text><rect fill="#FEFECE" filter="url(#f1n2b2l11af565)" height="35.0938" rx="12.5" ry="12.5" style="stroke: #A80036; stroke-width: 1.5;" width="37" x="92" y="636.5"/><text fill="#000000" font-family="sans-serif" font-size="12" lengthAdjust="spacingAndGlyphs" textLength="17" x="102" y="658.957">4,0</text><rect fill="#FEFECE" filter="url(#f1n2b2l11af565)" height="35.0938" rx="12.5" ry="12.5" style="stroke: #A80036; stroke-width: 1.5;" width="37" x="92" y="728.5"/><text fill="#000000" font-family="sans-serif" font-size="12" lengthAdjust="spacingAndGlyphs" textLength="17" x="102" y="750.957">5,0</text><!--link start to null,null--><path d="M73.25,28.089 C73.25,40.227 73.25,62.131 73.25,78.772 " fill="none" id="start-null,null" style="stroke: #A80036; stroke-width: 1.0;"/><polygon fill="#A80036" points="73.25,84.193,77.25,75.193,73.25,79.193,69.25,75.193,73.25,84.193" style="stroke: #A80036; stroke-width: 1.0;"/><text fill="#000000" font-family="sans-serif" font-size="11" lengthAdjust="spacingAndGlyphs" textLength="6" x="74.25" y="60.4189">1</text><!--link null,null to 0,null--><path d="M73.25,119.507 C73.25,134.006 73.25,155.208 73.25,171.117 " fill="none" id="null,null-0,null" style="stroke: #A80036; stroke-width: 1.0;"/><polygon fill="#A80036" points="73.25,176.292,77.25,167.292,73.25,171.292,69.25,167.292,73.25,176.292" style="stroke: #A80036; stroke-width: 1.0;"/><text fill="#000000" font-family="sans-serif" font-size="11" lengthAdjust="spacingAndGlyphs" textLength="6" x="74.25" y="152.4189">1</text><!--link 0,null to 0,0--><path d="M73.25,211.507 C73.25,226.006 73.25,247.208 73.25,263.117 " fill="none" id="0,null-0,0" style="stroke: #A80036; stroke-width: 1.0;"/><polygon fill="#A80036" points="73.25,268.292,77.25,259.292,73.25,263.292,69.25,259.292,73.25,268.292" style="stroke: #A80036; stroke-width: 1.0;"/><text fill="#000000" font-family="sans-serif" font-size="11" lengthAdjust="spacingAndGlyphs" textLength="6" x="74.25" y="244.4189">1</text><!--link 0,0 to 0,1--><path d="M54.9375,292.755 C40.7522,298.289 22.0779,308.185 13.25,324 C7.8968,333.59 9.7243,345.471 13.2916,355.551 " fill="none" id="0,0-0,1" style="stroke: #A80036; stroke-width: 1.0;"/><polygon fill="#A80036" points="15.1588,360.337,15.6144,350.4987,13.3416,355.6789,8.1614,353.4061,15.1588,360.337" style="stroke: #A80036; stroke-width: 1.0;"/><text fill="#000000" font-family="sans-serif" font-size="11" lengthAdjust="spacingAndGlyphs" textLength="12" x="14.25" y="336.4189">25</text><!--link 0,1 to 0,0--><path d="M33.3463,360.292 C41.3422,345.606 53.021,324.155 61.6798,308.251 " fill="none" id="0,1-0,0" style="stroke: #A80036; stroke-width: 1.0;"/><polygon fill="#A80036" points="64.2626,303.507,56.4454,309.4979,61.8713,307.8981,63.4711,313.324,64.2626,303.507" style="stroke: #A80036; stroke-width: 1.0;"/><text fill="#000000" font-family="sans-serif" font-size="11" lengthAdjust="spacingAndGlyphs" textLength="12" x="53.25" y="336.4189">25</text><!--link 0,0 to 1,0--><path d="M79.739,303.763 C83.8234,314.216 89.2504,327.93 94.25,340 C96.3825,345.148 98.7363,350.674 100.9675,355.843 " fill="none" id="0,0-1,0" style="stroke: #A80036; stroke-width: 1.0;"/><polygon fill="#A80036" points="102.9722,360.47,103.0631,350.6216,100.9837,355.8824,95.7229,353.8031,102.9722,360.47" style="stroke: #A80036; stroke-width: 1.0;"/><text fill="#000000" font-family="sans-serif" font-size="11" lengthAdjust="spacingAndGlyphs" textLength="6" x="95.25" y="336.4189">4</text><!--link 1,0 to 0,0--><path d="M110.345,360.146 C109.853,349.41 108.165,335.424 103.25,324 C100.7987,318.303 97.2088,312.768 93.3578,307.789 " fill="none" id="1,0-0,0" style="stroke: #A80036; stroke-width: 1.0;"/><polygon fill="#A80036" points="90.0809,303.747,92.641,313.2573,93.2295,307.6311,98.8556,308.2196,90.0809,303.747" style="stroke: #A80036; stroke-width: 1.0;"/><text fill="#000000" font-family="sans-serif" font-size="11" lengthAdjust="spacingAndGlyphs" textLength="6" x="108.25" y="336.4189">4</text><!--link 1,0 to 2,0--><path d="M100.8151,395.514 C96.0131,405.873 91.6788,419.576 94.25,432 C95.3137,437.14 97.1275,442.444 99.1605,447.375 " fill="none" id="1,0-2,0" style="stroke: #A80036; stroke-width: 1.0;"/><polygon fill="#A80036" points="101.2469,452.161,101.3162,442.3124,99.2484,447.5778,93.983,445.51,101.2469,452.161" style="stroke: #A80036; stroke-width: 1.0;"/><text fill="#000000" font-family="sans-serif" font-size="11" lengthAdjust="spacingAndGlyphs" textLength="6" x="95.25" y="428.4189">4</text><!--link 2,0 to 1,0--><path d="M110.25,452.292 C110.25,437.733 110.25,416.525 110.25,400.664 " fill="none" id="2,0-1,0" style="stroke: #A80036; stroke-width: 1.0;"/><polygon fill="#A80036" points="110.25,395.507,106.25,404.507,110.25,400.507,114.25,404.507,110.25,395.507" style="stroke: #A80036; stroke-width: 1.0;"/><text fill="#000000" font-family="sans-serif" font-size="11" lengthAdjust="spacingAndGlyphs" textLength="6" x="111.25" y="428.4189">4</text><!--link 2,0 to 3,0--><path d="M100.8151,487.514 C96.0131,497.873 91.6788,511.576 94.25,524 C95.3137,529.14 97.1275,534.444 99.1605,539.375 " fill="none" id="2,0-3,0" style="stroke: #A80036; stroke-width: 1.0;"/><polygon fill="#A80036" points="101.2469,544.161,101.3162,534.3124,99.2484,539.5778,93.983,537.51,101.2469,544.161" style="stroke: #A80036; stroke-width: 1.0;"/><text fill="#000000" font-family="sans-serif" font-size="11" lengthAdjust="spacingAndGlyphs" textLength="6" x="95.25" y="520.4189">8</text><!--link 3,0 to 2,0--><path d="M110.25,544.292 C110.25,529.733 110.25,508.525 110.25,492.664 " fill="none" id="3,0-2,0" style="stroke: #A80036; stroke-width: 1.0;"/><polygon fill="#A80036" points="110.25,487.507,106.25,496.507,110.25,492.507,114.25,496.507,110.25,487.507" style="stroke: #A80036; stroke-width: 1.0;"/><text fill="#000000" font-family="sans-serif" font-size="11" lengthAdjust="spacingAndGlyphs" textLength="6" x="111.25" y="520.4189">8</text><!--link 3,0 to 4,0--><path d="M100.8151,579.514 C96.0131,589.873 91.6788,603.576 94.25,616 C95.3137,621.14 97.1275,626.444 99.1605,631.375 " fill="none" id="3,0-4,0" style="stroke: #A80036; stroke-width: 1.0;"/><polygon fill="#A80036" points="101.2469,636.161,101.3162,626.3124,99.2484,631.5778,93.983,629.51,101.2469,636.161" style="stroke: #A80036; stroke-width: 1.0;"/><text fill="#000000" font-family="sans-serif" font-size="11" lengthAdjust="spacingAndGlyphs" textLength="6" x="95.25" y="612.4189">7</text><!--link 4,0 to 3,0--><path d="M110.25,636.292 C110.25,621.733 110.25,600.525 110.25,584.664 " fill="none" id="4,0-3,0" style="stroke: #A80036; stroke-width: 1.0;"/><polygon fill="#A80036" points="110.25,579.507,106.25,588.507,110.25,584.507,114.25,588.507,110.25,579.507" style="stroke: #A80036; stroke-width: 1.0;"/><text fill="#000000" font-family="sans-serif" font-size="11" lengthAdjust="spacingAndGlyphs" textLength="6" x="111.25" y="612.4189">7</text><!--link 4,0 to 5,0--><path d="M100.8151,671.5135 C96.0131,681.8732 91.6788,695.576 94.25,708 C95.3137,713.1399 97.1275,718.4439 99.1605,723.3747 " fill="none" id="4,0-5,0" style="stroke: #A80036; stroke-width: 1.0;"/><polygon fill="#A80036" points="101.2469,728.1611,101.3172,718.3125,99.2489,723.5777,93.9837,721.5093,101.2469,728.1611" style="stroke: #A80036; stroke-width: 1.0;"/><text fill="#000000" font-family="sans-serif" font-size="11" lengthAdjust="spacingAndGlyphs" textLength="6" x="95.25" y="704.4189">2</text><!--link 5,0 to 4,0--><path d="M110.25,728.2925 C110.25,713.7327 110.25,692.5246 110.25,676.6639 " fill="none" id="5,0-4,0" style="stroke: #A80036; stroke-width: 1.0;"/><polygon fill="#A80036" points="110.25,671.5074,106.25,680.5074,110.25,676.5074,114.25,680.5074,110.25,671.5074" style="stroke: #A80036; stroke-width: 1.0;"/><text fill="#000000" font-family="sans-serif" font-size="11" lengthAdjust="spacingAndGlyphs" textLength="6" x="111.25" y="704.4189">2</text><!--
@startuml
(*) - -> [1] "null,null"
"null,null" - -> [1] "0,null"
"0,null" - -> [1] "0,0"
"0,0" - -> [25] "0,1"
"0,1" - -> [25] "0,0"
"0,0" - -> [4] "1,0"
"1,0" - -> [4] "2,0"
"2,0" - -> [8] "3,0"
"3,0" - -> [7] "4,0"
"4,0" - -> [7] "3,0"
"3,0" - -> [8] "2,0"
"2,0" - -> [4] "1,0"
"4,0" - -> [2] "5,0"
"5,0" - -> [2] "4,0"
"1,0" - -> [4] "0,0" #red
@enduml

PlantUML version 1.2018.09(Fri Jul 27 12:58:18 EDT 2018)
(EPL source distribution)
Java Runtime: Java(TM) SE Runtime Environment
JVM: Java HotSpot(TM) 64-Bit Server VM
Java Version: 1.8.0_181-b13
Operating System: Windows 10
OS Version: 10.0
Default Encoding: Cp1252
Language: en
Country: US
--></g></svg>